# xmcd CD database file
# Generated: Sat Dec 1 17:19:30 2001 by KSCD
# 
# Track frame offsets:
#       187
#       7297
#       13987
#       23440
#       36285
#       45172
#       67675
#       72607
#       81202
#       100175
#       108815
#       116920
#       136297
#       150387
#       154402
#       167605
#       177982
#       183840
#       191337
#       206105
#       215757
#       224602
#       238227
#
# Disc length: 3386 seconds
#
# Revision: 1
# Processed by: cddbd v1.4PL0 Copyright (c) Steve Scherf et al.
# Submitted via: Kscd 1.3.2
#
DISCID=440d3817
DTITLE=The Chicage Brass Quintet/Merry Christmas
DYEAR=1900
DGENRE=
TTITLE0=Joy to the World
TTITLE1=Carol of the Bells
TTITLE2=Hark the Hearld Angels Sing
TTITLE3=What Child is This
TTITLE4=When Christ Was Born
TTITLE5=Infant Jesus
TTITLE6=Christmas Bells
TTITLE7=L'Enfance du Christ
TTITLE8=Silent Night
TTITLE9=Welcome Sweet Christmas
TTITLE10=O Come O Come Emmanuel
TTITLE11=Walts of the Flowers
TTITLE12=Danse Arabe
TTITLE13=Trepak
TTITLE14=Sleigh Ride
TTITLE15=Es ist ein Ros' entsprungen
TTITLE16=Lo, How a Rose er Blooming
TTITLE17=We Wish You a Merry Christmas
TTITLE18=The First Nöel
TTITLE19=Patapan
TTITLE20=Rejoice and be Merry
TTITLE21=Jingle Bells
TTITLE22=Hallelujah Chorus
EXTD=
EXTT0=
EXTT1=
EXTT2=
EXTT3=
EXTT4=
EXTT5=
EXTT6=
EXTT7=
EXTT8=
EXTT9=
EXTT10=
EXTT11=
EXTT12=
EXTT13=
EXTT14=
EXTT15=
EXTT16=
EXTT17=
EXTT18=
EXTT19=
EXTT20=
EXTT21=
EXTT22=
PLAYORDER=
